<svg xmlns="http://www.w3.org/2000/svg" width="200" height="200" viewBox="0 0 200 200">
  <rect width="200" height="200" rx="40" fill="#f5e1d7"/>
  <rect x="10" y="10" width="180" height="180" rx="35" fill="#fff5f0"/>
  <path d="M90,40 h20 c5,0 5,5 5,5 v15 h-30 v-15 c0,0 0,5 5,-5 z" fill="#80bcd0"/>
  <rect x="85" y="12" width="30" height="15" rx="7" fill="#80bcd0"/>
  <rect x="52" y="60" width="96" height="120" rx="30" fill="#aed9e9" stroke="#80bcd0" stroke-width="3"/>
  <path d="M52,122 q48,-10 96,0 v28 rx30 h-96 v-28" fill="#c3e8f4"/>
  <path d="M52,122 q48,-10 96,0 v30 q-48,-10 -96,0 z" fill="#80bcd0" opacity="0.3"/>
  <line x1="124" y1="97" x2="143" y2="97" stroke="#e64c3c" stroke-width="3"/>
  <line x1="128" y1="113" x2="143" y2="113" stroke="#e64c3c" stroke-width="3"/>
  <line x1="124" y1="129" x2="143" y2="129" stroke="#e64c3c" stroke-width="3"/>
  <line x1="128" y1="145" x2="143" y2="145" stroke="#e64c3c" stroke-width="3"/>
  <ellipse cx="75" cy="85" rx="5" ry="10" fill="white" opacity="0.4"/>
</svg>